<svg width="99" height="14" viewBox="0 0 99 14" fill="none" xmlns="http://www.w3.org/2000/svg">
<path fill-rule="evenodd" clip-rule="evenodd" d="M0 0.000488281H13.8089V8.28585H0V0.000488281ZM2.76179 5.52406H11.0471V2.76227H2.76179V5.52406Z" fill="black"/>
<path d="M13.8089 11.0476H0V13.8094H13.8089V11.0476Z" fill="black"/>
<path d="M19.3325 6.92075C19.3325 6.09286 19.5014 5.35757 19.8391 4.71487C20.1876 4.07216 20.6669 3.57652 21.277 3.22794C21.8979 2.86846 22.6005 2.68872 23.3848 2.68872C24.1582 2.68872 24.839 2.85757 25.4273 3.19526C26.0155 3.53295 26.473 4.01225 26.7998 4.63317C27.1266 5.25408 27.29 5.97303 27.29 6.79003V7.52532H21.1789C21.2116 8.14623 21.4404 8.65822 21.8652 9.06127C22.3009 9.46432 22.8401 9.66584 23.4828 9.66584C24.0384 9.66584 24.4796 9.54057 24.8064 9.29002C25.1441 9.03948 25.4109 8.70724 25.607 8.29329L27.0939 9.09395C26.7672 9.68218 26.3205 10.1833 25.7541 10.5972C25.1985 11.0112 24.4306 11.2181 23.4502 11.2181C22.6441 11.2181 21.9251 11.0384 21.2933 10.6789C20.6724 10.3085 20.1876 9.80201 19.8391 9.15931C19.5014 8.50571 19.3325 7.75952 19.3325 6.92075ZM25.46 6.13643C25.4055 5.55909 25.1931 5.10157 24.8227 4.76388C24.4523 4.4153 23.9676 4.24101 23.3685 4.24101C22.7584 4.24101 22.2628 4.4153 21.8815 4.76388C21.5003 5.10157 21.2715 5.55909 21.1953 6.13643H25.46Z" fill="black"/>
<path d="M34.8214 9.84558H34.658C34.0589 10.7606 33.1384 11.2181 31.8966 11.2181C31.2321 11.2181 30.6166 11.0438 30.0502 10.6953C29.4946 10.3467 29.048 9.85102 28.7103 9.20832C28.3726 8.55473 28.2038 7.8031 28.2038 6.95343C28.2038 6.10375 28.3726 5.35757 28.7103 4.71487C29.048 4.07216 29.4946 3.57652 30.0502 3.22794C30.6166 2.87936 31.2321 2.70506 31.8966 2.70506C33.1384 2.70506 34.0698 3.17347 34.6907 4.11029H34.8541V2.93382H36.6188V13.8089H34.8214V9.84558ZM32.4195 9.66584C33.1384 9.66584 33.7212 9.42619 34.1678 8.94689C34.6254 8.45669 34.8541 7.7922 34.8541 6.95343C34.8541 6.11465 34.6254 5.45561 34.1678 4.9763C33.7212 4.48611 33.1384 4.24101 32.4195 4.24101C31.7005 4.24101 31.1177 4.48611 30.6711 4.9763C30.2245 5.45561 30.0012 6.11465 30.0012 6.95343C30.0012 7.7922 30.2245 8.45669 30.6711 8.94689C31.1177 9.42619 31.7005 9.66584 32.4195 9.66584Z" fill="black"/>
<path d="M43.9738 9.7312H43.8104C43.3529 10.6571 42.4814 11.1201 41.196 11.1201C40.586 11.1201 40.0413 10.9839 39.562 10.7116C39.0827 10.4284 38.7069 10.0362 38.4346 9.53512C38.1731 9.02314 38.0424 8.4349 38.0424 7.77042V2.93382H39.8398V7.67238C39.8398 8.32597 40.0032 8.82162 40.33 9.15931C40.6568 9.4861 41.1252 9.6495 41.7352 9.6495C42.4106 9.6495 42.9444 9.42619 43.3365 8.97957C43.7396 8.52205 43.9411 7.8848 43.9411 7.0678V2.93382H45.7221V10.9894H43.9738V9.7312Z" fill="black"/>
<path d="M49.3618 10.9894H47.5808V2.93382H49.3618V10.9894Z" fill="black"/>
<path d="M53.0121 10.9894H51.2311V-6.10352e-05H53.0121V10.9894Z" fill="black"/>
<path d="M56.6624 10.9894H54.8814V2.93382H56.6624V10.9894Z" fill="black"/>
<path d="M60.3127 4.06127H60.4761C61.0753 3.15713 61.9957 2.70506 63.2376 2.70506C63.9021 2.70506 64.5121 2.87936 65.0676 3.22794C65.6341 3.57652 66.0861 4.07216 66.4238 4.71487C66.7615 5.35757 66.9304 6.10375 66.9304 6.95343C66.9304 7.8031 66.7615 8.55473 66.4238 9.20832C66.0861 9.85102 65.6341 10.3467 65.0676 10.6953C64.5121 11.0438 63.9021 11.2181 63.2376 11.2181C61.9957 11.2181 61.0644 10.7443 60.4434 9.79656H60.28V10.9894H58.5317V-6.10352e-05H60.3127V4.06127ZM62.7147 4.24101C62.0066 4.24101 61.4238 4.48611 60.9663 4.9763C60.5197 5.4665 60.2964 6.12554 60.2964 6.95343C60.2964 7.78131 60.5197 8.44035 60.9663 8.93055C61.4238 9.42074 62.0066 9.66584 62.7147 9.66584C63.4336 9.66584 64.0164 9.42619 64.463 8.94689C64.9097 8.45669 65.133 7.7922 65.133 6.95343C65.133 6.11465 64.9097 5.45561 64.463 4.9763C64.0164 4.48611 63.4336 4.24101 62.7147 4.24101Z" fill="black"/>
<path d="M70.2052 4.04493C70.3686 3.64188 70.6137 3.35321 70.9405 3.17892C71.2673 2.99373 71.6976 2.90114 72.2314 2.90114H73.1627V4.42075H71.9209C71.3545 4.42075 70.9024 4.57325 70.5647 4.87826C70.2379 5.18327 70.0745 5.6299 70.0745 6.21813V10.9894H68.2935V2.93382H70.0418V4.04493H70.2052Z" fill="black"/>
<path d="M75.9747 10.9894H74.1937V2.93382H75.9747V10.9894Z" fill="black"/>
<path d="M83.7754 9.7312H83.6119C83.1544 10.6571 82.283 11.1201 80.9976 11.1201C80.3876 11.1201 79.8429 10.9839 79.3636 10.7116C78.8843 10.4284 78.5085 10.0362 78.2361 9.53512C77.9747 9.02314 77.844 8.4349 77.844 7.77042V2.93382H79.6414V7.67238C79.6414 8.32597 79.8048 8.82162 80.1316 9.15931C80.4584 9.4861 80.9268 9.6495 81.5368 9.6495C82.2122 9.6495 82.7459 9.42619 83.1381 8.97957C83.5411 8.52205 83.7427 7.8848 83.7427 7.0678V2.93382H85.5237V10.9894H83.7754V9.7312Z" fill="black"/>
<path d="M89.1307 3.94689H89.2941C89.6972 3.17347 90.427 2.78676 91.4837 2.78676C92.5839 2.78676 93.341 3.23339 93.7549 4.12663H93.9183C94.1471 3.70179 94.4466 3.375 94.817 3.14624C95.1874 2.90659 95.6776 2.78676 96.2876 2.78676C97.0828 2.78676 97.7309 3.03731 98.232 3.5384C98.744 4.02859 99 4.72576 99 5.6299V10.9894H97.2026V5.72794C97.2026 5.25953 97.0719 4.90005 96.8105 4.64951C96.549 4.38807 96.1896 4.25735 95.732 4.25735C95.2201 4.25735 94.817 4.42075 94.5229 4.74754C94.2288 5.07434 94.0817 5.54275 94.0817 6.15277V10.9894H92.2843V5.72794C92.2843 5.25953 92.1536 4.90005 91.8922 4.64951C91.6416 4.38807 91.2821 4.25735 90.8137 4.25735C90.3018 4.25735 89.8987 4.42075 89.6046 4.74754C89.3105 5.07434 89.1634 5.54275 89.1634 6.15277V10.9894H87.3824V2.93382H89.1307V3.94689Z" fill="black"/>
<path d="M47.602 0.0301944H49.3627V1.60595H47.602V0.0301944Z" fill="black"/>
<path d="M54.8602 0.0301944H56.6209V1.60595H54.8602V0.0301944Z" fill="black"/>
<path d="M74.2155 0.0301944H75.9762V1.60595H74.2155V0.0301944Z" fill="black"/>
</svg>
