<svg width="122" height="18" viewBox="0 0 122 18" fill="none" xmlns="http://www.w3.org/2000/svg">
<path fill-rule="evenodd" clip-rule="evenodd" d="M0.282227 0.561279H17.1598V10.6878H0.282227V0.561279ZM3.65774 7.31231H13.7843V3.9368H3.65774V7.31231Z" fill="#F1EBD4"/>
<path d="M17.1598 14.0633H0.282227V17.4389H17.1598V14.0633Z" fill="#F1EBD4"/>
<path d="M23.9108 9.01992C23.9108 8.00806 24.1171 7.10937 24.5299 6.32385C24.9559 5.53832 25.5417 4.93254 26.2873 4.50649C27.0462 4.06713 27.905 3.84745 28.8636 3.84745C29.8088 3.84745 30.641 4.05382 31.3599 4.46655C32.0789 4.87928 32.6381 5.46509 33.0375 6.22399C33.4369 6.98289 33.6366 7.86161 33.6366 8.86015V9.75885H26.1675C26.2074 10.5177 26.487 11.1435 27.0063 11.6361C27.5388 12.1287 28.1979 12.375 28.9834 12.375C29.6624 12.375 30.2016 12.2219 30.601 11.9157C31.0138 11.6095 31.34 11.2034 31.5796 10.6975L33.397 11.6761C32.9975 12.395 32.4517 13.0074 31.7593 13.5134C31.0803 14.0193 30.1417 14.2723 28.9434 14.2723C27.9582 14.2723 27.0795 14.0526 26.3073 13.6132C25.5484 13.1606 24.9559 12.5415 24.5299 11.7559C24.1171 10.9571 23.9108 10.0451 23.9108 9.01992ZM31.3999 8.06132C31.3333 7.35568 31.0737 6.79649 30.621 6.38376C30.1683 5.95771 29.5759 5.74469 28.8436 5.74469C28.098 5.74469 27.4922 5.95771 27.0262 6.38376C26.5602 6.79649 26.2807 7.35568 26.1875 8.06132H31.3999Z" fill="#F1EBD4"/>
<path d="M42.8417 12.5947H42.6419C41.9097 13.7131 40.7847 14.2723 39.2669 14.2723C38.4547 14.2723 37.7025 14.0593 37.0101 13.6332C36.3311 13.2072 35.7853 12.6014 35.3725 11.8159C34.9598 11.017 34.7534 10.0984 34.7534 9.05986C34.7534 8.02137 34.9598 7.10937 35.3725 6.32385C35.7853 5.53832 36.3311 4.93254 37.0101 4.50649C37.7025 4.08044 38.4547 3.86742 39.2669 3.86742C40.7847 3.86742 41.923 4.43992 42.6819 5.58492H42.8816V4.14701H45.0385V17.4387H42.8417V12.5947ZM39.9059 12.375C40.7847 12.375 41.4969 12.0821 42.0428 11.4963C42.602 10.8972 42.8816 10.085 42.8816 9.05986C42.8816 8.03469 42.602 7.22919 42.0428 6.64338C41.4969 6.04425 40.7847 5.74469 39.9059 5.74469C39.0272 5.74469 38.3149 6.04425 37.769 6.64338C37.2232 7.22919 36.9502 8.03469 36.9502 9.05986C36.9502 10.085 37.2232 10.8972 37.769 11.4963C38.3149 12.0821 39.0272 12.375 39.9059 12.375Z" fill="#F1EBD4"/>
<path d="M54.0279 12.4549H53.8281C53.269 13.5866 52.2038 14.1524 50.6328 14.1524C49.8872 14.1524 49.2215 13.986 48.6357 13.6532C48.0499 13.307 47.5906 12.8277 47.2577 12.2153C46.9382 11.5895 46.7784 10.8706 46.7784 10.0584V4.14701H48.9752V9.93858C48.9752 10.7374 49.1749 11.3432 49.5743 11.7559C49.9738 12.1554 50.5463 12.3551 51.2918 12.3551C52.1173 12.3551 52.7697 12.0821 53.249 11.5363C53.7416 10.9771 53.9879 10.1982 53.9879 9.19966V4.14701H56.1647V13.9927H54.0279V12.4549Z" fill="#F1EBD4"/>
<path d="M60.6133 13.9927H58.4364V4.14701H60.6133V13.9927Z" fill="#F1EBD4"/>
<path d="M65.0747 13.9927H62.8979V0.561157H65.0747V13.9927Z" fill="#F1EBD4"/>
<path d="M69.5362 13.9927H67.3594V4.14701H69.5362V13.9927Z" fill="#F1EBD4"/>
<path d="M73.9977 5.52501H74.1974C74.9297 4.41995 76.0547 3.86742 77.5725 3.86742C78.3846 3.86742 79.1302 4.08044 79.8092 4.50649C80.5016 4.93254 81.0541 5.53832 81.4668 6.32385C81.8796 7.10937 82.0859 8.02137 82.0859 9.05986C82.0859 10.0984 81.8796 11.017 81.4668 11.8159C81.0541 12.6014 80.5016 13.2072 79.8092 13.6332C79.1302 14.0593 78.3846 14.2723 77.5725 14.2723C76.0547 14.2723 74.9164 13.6931 74.1575 12.5348H73.9577V13.9927H71.8209V0.561157H73.9977V5.52501ZM76.9334 5.74469C76.068 5.74469 75.3557 6.04425 74.7965 6.64338C74.2507 7.24251 73.9777 8.048 73.9777 9.05986C73.9777 10.0717 74.2507 10.8772 74.7965 11.4763C75.3557 12.0755 76.068 12.375 76.9334 12.375C77.8121 12.375 78.5244 12.0821 79.0703 11.4963C79.6162 10.8972 79.8891 10.085 79.8891 9.05986C79.8891 8.03469 79.6162 7.22919 79.0703 6.64338C78.5244 6.04425 77.8121 5.74469 76.9334 5.74469Z" fill="#F1EBD4"/>
<path d="M86.0885 5.50504C86.2882 5.01242 86.5878 4.6596 86.9872 4.44658C87.3866 4.22024 87.9125 4.10707 88.5649 4.10707H89.7033V5.96437H88.1855C87.4931 5.96437 86.9406 6.15076 86.5279 6.52355C86.1285 6.89634 85.9288 7.44222 85.9288 8.16117V13.9927H83.7519V4.14701H85.8888V5.50504H86.0885Z" fill="#F1EBD4"/>
<path d="M93.1401 13.9927H90.9633V4.14701H93.1401V13.9927Z" fill="#F1EBD4"/>
<path d="M102.674 12.4549H102.475C101.915 13.5866 100.85 14.1524 99.2792 14.1524C98.5336 14.1524 97.8679 13.986 97.2821 13.6532C96.6963 13.307 96.2369 12.8277 95.9041 12.2153C95.5845 11.5895 95.4248 10.8706 95.4248 10.0584V4.14701H97.6216V9.93858C97.6216 10.7374 97.8213 11.3432 98.2207 11.7559C98.6201 12.1554 99.1926 12.3551 99.9382 12.3551C100.764 12.3551 101.416 12.0821 101.895 11.5363C102.388 10.9771 102.634 10.1982 102.634 9.19966V4.14701H104.811V13.9927H102.674V12.4549Z" fill="#F1EBD4"/>
<path d="M109.22 5.38521H109.419C109.912 4.43992 110.804 3.96728 112.096 3.96728C113.44 3.96728 114.366 4.51315 114.871 5.60489H115.071C115.351 5.08565 115.717 4.68623 116.17 4.40664C116.622 4.11373 117.221 3.96728 117.967 3.96728C118.939 3.96728 119.731 4.2735 120.343 4.88594C120.969 5.48507 121.282 6.33716 121.282 7.44222V13.9927H119.085V7.56204C119.085 6.98954 118.926 6.55018 118.606 6.24396C118.287 5.92443 117.847 5.76466 117.288 5.76466C116.662 5.76466 116.17 5.96437 115.81 6.36379C115.451 6.76321 115.271 7.33571 115.271 8.08129V13.9927H113.074V7.56204C113.074 6.98954 112.914 6.55018 112.595 6.24396C112.289 5.92443 111.849 5.76466 111.277 5.76466C110.651 5.76466 110.158 5.96437 109.799 6.36379C109.439 6.76321 109.26 7.33571 109.26 8.08129V13.9927H107.083V4.14701H109.22V5.38521Z" fill="#F1EBD4"/>
<path d="M58.4623 0.598136H60.6143V2.52406H58.4623V0.598136Z" fill="#F1EBD4"/>
<path d="M67.3335 0.598136H69.4855V2.52406H67.3335V0.598136Z" fill="#F1EBD4"/>
<path d="M90.9899 0.598136H93.1419V2.52406H90.9899V0.598136Z" fill="#F1EBD4"/>
</svg>
