<svg width="153" height="199" viewBox="0 0 153 199" fill="none" xmlns="http://www.w3.org/2000/svg">
<path fill-rule="evenodd" clip-rule="evenodd" d="M115.318 76.3942H152.789C152.789 34.2028 118.586 0 76.3943 0C34.203 0 0.00012207 34.2028 0.00012207 76.3942H38.4621L38.4452 76.4233L57.6691 95.6427L76.8899 76.4235L96.1137 95.6427L115.335 76.4233L115.318 76.3942ZM76.9066 76.3942L96.1137 43.1831L115.318 76.3942H76.9066ZM76.9066 76.3942L76.8899 76.4231L76.8732 76.3942H76.9066ZM76.8732 76.3942H76.3943H38.4621L57.6691 43.1831L76.8732 76.3942Z" fill="#E6B754"/>
<path fill-rule="evenodd" clip-rule="evenodd" d="M57.6691 95.6433L44.3574 118.661C43.4581 120.216 42.8574 121.876 42.5455 123.569H0L75.4484 199L150.885 123.569H111.235C110.923 121.877 110.323 120.216 109.424 118.662L96.1136 95.6433L82.8019 118.661C81.9027 120.216 81.3019 121.876 80.99 123.569H75.4484H72.7908C72.4789 121.877 71.8783 120.216 70.9794 118.662L57.6691 95.6433ZM80.99 123.569C80.0925 128.44 81.5863 133.579 85.2412 137.233C91.2461 143.237 100.981 143.236 106.985 137.232C110.639 133.578 112.133 128.44 111.235 123.569H80.99ZM72.7908 123.569C73.6883 128.44 72.1949 133.578 68.5406 137.232C62.5361 143.236 52.8015 143.237 46.7966 137.233C43.1417 133.579 41.648 128.44 42.5455 123.569H72.7908Z" fill="#E6B754"/>
</svg>
