<svg width="23" height="21" viewBox="0 0 23 21" fill="none" xmlns="http://www.w3.org/2000/svg">
<g clip-path="url(#clip0_1146_27371)">
<path d="M17.0608 7.02067C16.8567 6.91155 16.6268 6.85426 16.393 6.85426C16.1592 6.85426 15.9292 6.91155 15.7251 7.02067L12.6606 8.72083L10.5785 9.82963L7.51413 11.5298C7.30999 11.6388 7.08007 11.696 6.84627 11.696C6.61247 11.696 6.38255 11.6388 6.17841 11.5298L3.74251 10.1992C3.54432 10.0905 3.37878 9.93477 3.26187 9.74702C3.14496 9.55927 3.08063 9.34585 3.07509 9.12739V6.50323C3.07235 6.2831 3.13322 6.06653 3.25099 5.8774C3.36876 5.68827 3.53886 5.53392 3.74251 5.43139L6.13907 4.13779C6.34321 4.02876 6.57312 3.97153 6.80693 3.97153C7.04073 3.97153 7.27065 4.02876 7.47479 4.13779L9.87134 5.43139C10.0695 5.5401 10.2351 5.69585 10.352 5.8836C10.4689 6.07135 10.5332 6.28476 10.5388 6.50323V8.20339L12.6209 7.05763V5.35747C12.6237 5.13734 12.5628 4.92077 12.445 4.73164C12.3273 4.54251 12.1572 4.38816 11.9535 4.28563L7.51413 1.84644C7.30999 1.73741 7.08007 1.68018 6.84627 1.68018C6.61247 1.68018 6.38255 1.73741 6.17841 1.84644L1.65982 4.2858C1.45619 4.38832 1.28611 4.54264 1.16834 4.73174C1.05057 4.92084 0.989688 5.13737 0.992398 5.35747V10.2731C0.989655 10.4933 1.05053 10.7098 1.1683 10.899C1.28607 11.0881 1.45616 11.2425 1.65982 11.345L6.17789 13.7843C6.38203 13.8934 6.61194 13.9506 6.84574 13.9506C7.07955 13.9506 7.30946 13.8934 7.5136 13.7843L10.5779 12.1211L12.6601 10.9754L15.7246 9.31219C15.9287 9.20307 16.1586 9.14578 16.3925 9.14578C16.6263 9.14578 16.8562 9.20307 17.0603 9.31219L19.4569 10.6058C19.6551 10.7145 19.8206 10.8703 19.9375 11.058C20.0544 11.2458 20.1187 11.4592 20.1243 11.6776V14.3018C20.127 14.5219 20.0662 14.7385 19.9484 14.9276C19.8306 15.1167 19.6605 15.2711 19.4569 15.3736L17.0603 16.7042C16.8562 16.8132 16.6263 16.8704 16.3925 16.8704C16.1587 16.8704 15.9287 16.8132 15.7246 16.7042L13.328 15.4106C13.1299 15.3019 12.9643 15.1461 12.8474 14.9584C12.7305 14.7706 12.6662 14.5572 12.6606 14.3387V12.6384L10.5785 13.7842V15.4843C10.5757 15.7045 10.6366 15.921 10.7544 16.1102C10.8721 16.2993 11.0422 16.4536 11.2459 16.5562L15.7639 18.9955C15.9681 19.1046 16.198 19.1618 16.4318 19.1618C16.6656 19.1618 16.8955 19.1046 17.0997 18.9955L21.6177 16.5562C21.8159 16.4475 21.9814 16.2917 22.0983 16.104C22.2153 15.9162 22.2796 15.7028 22.2851 15.4843V10.5688C22.2879 10.3487 22.227 10.1321 22.1093 9.943C21.9915 9.75387 21.8214 9.59952 21.6177 9.49699L17.0608 7.02067Z" fill="#F1EBD4"/>
</g>
<defs>
<clipPath id="clip0_1146_27371">
<rect width="21.9545" height="21" fill="white" transform="translate(0.641113)"/>
</clipPath>
</defs>
</svg>
