<?xml version="1.0" standalone="no"?>
<!DOCTYPE svg PUBLIC "-//W3C//DTD SVG 20010904//EN"
 "http://www.w3.org/TR/2001/REC-SVG-20010904/DTD/svg10.dtd">
<svg version="1.0" xmlns="http://www.w3.org/2000/svg"
 width="1216.000000pt" height="1216.000000pt" viewBox="0 0 1216.000000 1216.000000"
 preserveAspectRatio="xMidYMid meet">
<metadata>
Created by potrace 1.14, written by Peter Selinger 2001-2017
</metadata>
<g transform="translate(0.000000,1216.000000) scale(0.100000,-0.100000)"
fill="#000000" stroke="none">
<path d="M4515 9419 c-852 -1386 -1551 -2527 -1553 -2535 -3 -12 415 -14 3107
-14 2208 0 3111 3 3111 11 0 6 -590 970 -1311 2142 -722 1173 -1420 2309
-1553 2524 -132 216 -243 393 -246 393 -3 -1 -702 -1135 -1555 -2521z"/>
<path d="M2867 6738 c-156 -245 -1087 -1769 -1087 -1778 0 -6 85 -105 188
-218 103 -114 518 -571 922 -1017 404 -445 951 -1048 1215 -1340 264 -291 813
-897 1220 -1345 406 -448 742 -815 746 -815 3 0 408 443 900 985 491 542 1197
1320 1568 1730 372 410 935 1031 1253 1382 l577 636 -562 916 c-309 503 -565
915 -569 916 -4 0 -386 -408 -850 -907 -986 -1062 -2310 -2487 -2313 -2491 -3
-4 -157 160 -1782 1910 -754 812 -1376 1479 -1382 1483 -6 3 -26 -18 -44 -47z"/>
</g>
</svg>
