<svg width="124" height="34" viewBox="0 0 124 34" fill="none" xmlns="http://www.w3.org/2000/svg">
<path fill-rule="evenodd" clip-rule="evenodd" d="M12.4465 33.6031L0 21.292L2.9841 16.1872L12.4463 25.5464L21.9074 16.1869L24.8911 21.292L12.4465 33.6031ZM21.8904 16.1579H3.00124L12.4465 0L21.8904 16.1579Z" fill="#E6B754"/>
<path d="M88.5356 2.83936V6.76486H92.4611V2.83936H88.5356Z" fill="#F1EBD4"/>
<path d="M88.5356 8.72761V24.9203H92.4611V8.72761H88.5356Z" fill="#F1EBD4"/>
<path d="M80.1637 8.48226C81.9424 8.48226 83.3838 9.06495 84.4265 10.2303C85.4693 11.3957 85.9906 13.1131 85.9906 15.3519V24.9203H82.0651V16.7013C82.0651 14.9532 81.8198 13.7265 81.3597 13.0518C80.8691 12.3771 80.1024 12.0397 79.0597 12.0397C78.2929 12.0397 77.5876 12.3158 76.9129 12.8371C76.2382 13.3891 75.7168 14.1252 75.3182 15.0759C74.8888 16.0572 74.7048 17.1306 74.7048 18.3267V24.9203H70.7793V8.72761H74.7048V9.73965C74.7048 10.2303 74.6435 10.629 74.5821 10.9357C74.4901 11.273 74.3675 11.6104 74.2141 11.9477C74.0914 12.1931 74.0608 12.3771 74.0608 12.4384C74.0608 12.6224 74.1221 12.7451 74.3061 12.7451H74.3981C74.5208 12.7451 74.6435 12.6224 74.7661 12.3771C75.1955 11.3957 75.9008 10.4757 76.8516 9.67831C77.7716 8.88094 78.8756 8.48226 80.1637 8.48226Z" fill="#F1EBD4"/>
<path d="M40.1403 8.72761L43.7285 20.5654C43.8511 21.0561 43.9432 21.6388 43.9432 22.3442C43.9432 22.6509 44.0658 22.8042 44.3112 22.8042C44.5565 22.8042 44.6792 22.6509 44.6792 22.3442C44.6792 21.6388 44.7405 21.0561 44.8939 20.5654L48.482 8.72761H52.6529L47.1326 24.9203H41.4897L35.9695 8.72761H40.1403Z" fill="#F1EBD4"/>
<path d="M95.5101 2.83936H99.4356V24.9203H95.5101V2.83936Z" fill="#F1EBD4"/>
<path d="M106.41 2.83936H102.485V24.9203H106.41V2.83936Z" fill="#F1EBD4"/>
<path fill-rule="evenodd" clip-rule="evenodd" d="M108.478 20.4734C108.478 18.8174 108.999 17.56 110.073 16.7626C111.146 15.9652 112.587 15.5052 114.366 15.3826L115.93 15.3212C117.31 15.2905 118.292 15.1985 118.905 15.0452C119.488 14.9225 119.764 14.5545 119.764 14.0025C119.733 13.3278 119.488 12.7451 119.058 12.3158C118.598 11.8864 117.74 11.6717 116.513 11.6717C115.225 11.6717 114.335 11.9171 113.814 12.3464C113.262 12.7758 112.955 13.3891 112.833 14.1252H108.969C109.214 12.2238 110.073 10.7824 111.514 9.86232C112.925 8.94228 114.642 8.48226 116.636 8.48226C118.782 8.48226 120.5 9.03428 121.788 10.077C123.045 11.1504 123.689 13.1131 123.689 15.9652V24.9203H119.764V23.7856C119.764 23.1722 119.917 22.5895 120.224 22.0068C120.234 21.9753 120.245 21.9446 120.255 21.9149C120.304 21.7711 120.346 21.6484 120.346 21.5468C120.346 21.4241 120.285 21.3628 120.193 21.3015L120.07 21.2708C119.948 21.2708 119.856 21.3321 119.794 21.4548L119.702 21.6388C118.721 24.0002 116.881 25.1656 114.121 25.1656C113.109 25.1656 112.158 24.9816 111.299 24.5523C110.441 24.1536 109.735 23.6016 109.245 22.8655C108.723 22.1602 108.478 21.3628 108.478 20.4734ZM119.764 16.5786C119.334 17.0386 118.813 17.3453 118.138 17.5293C117.464 17.7133 116.452 17.8667 115.041 17.9893C114.151 18.112 113.477 18.3267 113.047 18.6947C112.618 19.0627 112.403 19.5841 112.403 20.2588C112.403 20.8721 112.618 21.3321 113.078 21.7002C113.538 22.0682 114.151 22.2522 114.887 22.2522C115.133 22.2522 115.348 22.2522 115.501 22.2215C116.697 22.0682 117.709 21.5468 118.506 20.6574C119.304 19.7987 119.733 18.4187 119.764 16.5786Z" fill="#F1EBD4"/>
<path fill-rule="evenodd" clip-rule="evenodd" d="M53.0224 20.4734C53.0224 18.8173 53.5438 17.5599 54.6172 16.7625C55.6906 15.9652 57.132 15.5052 58.9107 15.3825L60.4748 15.3212C61.8548 15.2905 62.8362 15.1985 63.4496 15.0451C64.0323 14.9225 64.3083 14.5545 64.3083 14.0024C64.2776 13.3277 64.0322 12.745 63.6029 12.3157C63.1429 11.8863 62.2842 11.6717 61.0575 11.6717C59.7694 11.6717 58.88 11.917 58.3587 12.3464C57.8067 12.7757 57.5 13.3891 57.3773 14.1251H53.5131C53.7585 12.2237 54.6172 10.7823 56.0586 9.86226C57.4693 8.94222 59.1867 8.4822 61.1801 8.4822C63.3269 8.4822 65.0443 9.03422 66.3323 10.0769C67.5897 11.1503 68.2338 13.1131 68.2338 15.9652V24.9202H64.3083V23.7855C64.3083 23.1722 64.4616 22.5895 64.7683 22.0068C64.7788 21.9752 64.7893 21.9445 64.7995 21.9148C64.8489 21.7711 64.8909 21.6484 64.8909 21.5468C64.8909 21.4241 64.8296 21.3627 64.7376 21.3014L64.6149 21.2707C64.4923 21.2707 64.4003 21.3321 64.3389 21.4547L64.2469 21.6388C63.2655 24.0002 61.4255 25.1656 58.6654 25.1656C57.6533 25.1656 56.7026 24.9816 55.8439 24.5522C54.9852 24.1535 54.2798 23.6015 53.7891 22.8655C53.2678 22.1601 53.0224 21.3627 53.0224 20.4734ZM64.3083 16.5785C63.8789 17.0386 63.3576 17.3452 62.6829 17.5292C62.0082 17.7133 60.9961 17.8666 59.5854 17.9893C58.696 18.1119 58.0213 18.3266 57.592 18.6946C57.1626 19.0626 56.9479 19.584 56.9479 20.2587C56.9479 20.8721 57.1626 21.3321 57.6226 21.7001C58.0827 22.0681 58.696 22.2521 59.4321 22.2521C59.6774 22.2521 59.8921 22.2521 60.0454 22.2214C61.2415 22.0681 62.2535 21.5468 63.0509 20.6574C63.8482 19.7987 64.2776 18.4186 64.3083 16.5785Z" fill="#F1EBD4"/>
</svg>
