<svg width="130" height="34" viewBox="0 0 130 34" fill="none" xmlns="http://www.w3.org/2000/svg">
<path fill-rule="evenodd" clip-rule="evenodd" d="M12 33.4203L0 20.1855L3.15612 15.0551L12.0002 24.572L20.8441 15.0554L24 20.1855L12 33.4203ZM20.7076 14.8335L12 0.678711L3.29239 14.8335L20.7076 14.8335Z" fill="#E6B754"/>
<path d="M44.7667 21.3994L40.976 8.89326H36.5697L42.4016 26H48.363L54.1949 8.89326H49.7886L45.9979 21.3994C45.8359 21.9177 45.7711 22.5333 45.7711 23.2785C45.7711 23.6025 45.6415 23.7645 45.3823 23.7645C45.1231 23.7645 44.9935 23.6025 44.9935 23.2785C44.9935 22.5333 44.8963 21.9177 44.7667 21.3994Z" fill="#F1EBD4"/>
<path d="M55.9933 17.3819C54.8593 18.2242 54.3085 19.5526 54.3085 21.3022C54.3085 22.2417 54.5677 23.0841 55.1185 23.8293C55.6369 24.6069 56.3821 25.1901 57.2893 25.6113C58.1964 26.0648 59.2008 26.2592 60.27 26.2592C63.1859 26.2592 65.1299 25.0281 66.1666 22.5333C66.1666 22.5333 66.199 22.4685 66.2638 22.3389C66.3286 22.2093 66.4258 22.1445 66.5554 22.1445L66.685 22.1769C66.7822 22.2417 66.847 22.3065 66.847 22.4361C66.847 22.5657 66.7822 22.7277 66.7174 22.9221C66.3934 23.5377 66.2314 24.1533 66.2314 24.8013V26H70.3785V16.5395C70.3785 13.5263 69.6982 11.4528 68.3698 10.3188C67.009 9.21725 65.1947 8.63406 62.9267 8.63406C60.8208 8.63406 59.0064 9.12005 57.516 10.092C55.9933 11.064 55.0861 12.5868 54.8269 14.5955H58.9092C59.0388 13.8179 59.3628 13.17 59.946 12.7164C60.4968 12.2628 61.4364 12.0036 62.7971 12.0036C64.0931 12.0036 65.0003 12.2304 65.4863 12.684C65.9398 13.1376 66.199 13.7531 66.2314 14.4659C66.2314 15.0491 65.9398 15.4379 65.3243 15.5675C64.6763 15.7295 63.6395 15.8267 62.1815 15.8591L60.5292 15.9239C58.65 16.0535 57.1273 16.5395 55.9933 17.3819ZM64.5143 18.1918C65.2271 17.9974 65.7779 17.6734 66.2314 17.1875C66.199 19.1314 65.7454 20.5894 64.9031 21.4966C64.0607 22.4361 62.9915 22.9869 61.7279 23.1489C61.566 23.1813 61.3392 23.1813 61.08 23.1813C60.3024 23.1813 59.6544 22.9869 59.1684 22.5981C58.6824 22.2093 58.4556 21.7233 58.4556 21.0754C58.4556 20.3626 58.6824 19.8118 59.136 19.423C59.5896 19.0342 60.3024 18.8074 61.242 18.6778C62.7323 18.5482 63.8015 18.3862 64.5143 18.1918Z" fill="#F1EBD4"/>
<path d="M87.7622 10.4808C86.6607 9.24965 85.1379 8.63406 83.2588 8.63406C81.898 8.63406 80.7316 9.05525 79.7596 9.89763C78.7553 10.74 78.0101 11.712 77.5565 12.7488C77.4269 13.008 77.2973 13.1376 77.1677 13.1376H77.0705C76.8761 13.1376 76.8113 13.008 76.8113 12.8136C76.8113 12.7488 76.8437 12.5544 76.9733 12.2952C77.1353 11.9388 77.2649 11.5824 77.3621 11.226C77.4269 10.902 77.4917 10.4808 77.4917 9.96243V8.89326H73.3446V26H77.4917V19.0342C77.4917 17.7706 77.6861 16.6367 78.1397 15.5999C78.5609 14.5955 79.1116 13.8179 79.8244 13.2348C80.5372 12.684 81.2824 12.3924 82.0924 12.3924C83.194 12.3924 84.0039 12.7488 84.5223 13.4615C85.0083 14.1743 85.2675 15.4703 85.2675 17.3171V26H89.4146V15.8915C89.4146 13.5263 88.8638 11.712 87.7622 10.4808Z" fill="#F1EBD4"/>
<path d="M92.1032 2.67261V6.81971H96.2503V2.67261H92.1032ZM92.1032 8.89326V26H96.2503V8.89326H92.1032Z" fill="#F1EBD4"/>
<path d="M103.619 2.67261H99.4715V26H103.619V2.67261Z" fill="#F1EBD4"/>
<path d="M110.987 2.67261H106.84V26H110.987V2.67261Z" fill="#F1EBD4"/>
<path d="M114.856 17.3819C113.722 18.2242 113.171 19.5526 113.171 21.3022C113.171 22.2417 113.431 23.0841 113.981 23.8293C114.5 24.6069 115.245 25.1901 116.152 25.6113C117.059 26.0648 118.064 26.2592 119.133 26.2592C122.049 26.2592 123.993 25.0281 125.029 22.5333C125.029 22.5333 125.062 22.4685 125.127 22.3389C125.191 22.2093 125.289 22.1445 125.418 22.1445L125.548 22.1769C125.645 22.2417 125.71 22.3065 125.71 22.4361C125.71 22.5657 125.645 22.7277 125.58 22.9221C125.256 23.5377 125.094 24.1533 125.094 24.8013V26H129.241V16.5395C129.241 13.5263 128.561 11.4528 127.233 10.3188C125.872 9.21725 124.057 8.63406 121.79 8.63406C119.684 8.63406 117.869 9.12005 116.379 10.092C114.856 11.064 113.949 12.5868 113.69 14.5955H117.772C117.902 13.8179 118.226 13.17 118.809 12.7164C119.36 12.2628 120.299 12.0036 121.66 12.0036C122.956 12.0036 123.863 12.2304 124.349 12.684C124.803 13.1376 125.062 13.7531 125.094 14.4659C125.094 15.0491 124.803 15.4379 124.187 15.5675C123.539 15.7295 122.502 15.8267 121.044 15.8591L119.392 15.9239C117.513 16.0535 115.99 16.5395 114.856 17.3819ZM123.377 18.1918C124.09 17.9974 124.641 17.6734 125.094 17.1875C125.062 19.1314 124.608 20.5894 123.766 21.4966C122.923 22.4361 121.854 22.9869 120.591 23.1489C120.429 23.1813 120.202 23.1813 119.943 23.1813C119.165 23.1813 118.517 22.9869 118.031 22.5981C117.545 22.2093 117.318 21.7233 117.318 21.0754C117.318 20.3626 117.545 19.8118 117.999 19.423C118.452 19.0342 119.165 18.8074 120.105 18.6778C121.595 18.5482 122.664 18.3862 123.377 18.1918Z" fill="#F1EBD4"/>
</svg>
